<svg width="72" height="72" viewBox="0 0 72 72" fill="none" xmlns="http://www.w3.org/2000/svg">
<path d="M61.8556 0H10.1444C4.54181 0 0 4.54181 0 10.1444V61.8556C0 67.4582 4.54181 72 10.1444 72H61.8556C67.4582 72 72 67.4582 72 61.8556V10.1444C72 4.54181 67.4582 0 61.8556 0Z" fill="#FFCC99"/>
<path d="M16.8895 37.072C19.4879 35.2049 22.3752 33.777 25.4362 32.8451C30.4492 31.6616 32.1991 31.6278 35.7412 31.8476C44.1526 33.1241 45.8856 34.054 52.564 37.1565C54.9395 38.2639 60.7303 41.0959 60.3837 42.1104C59.6482 41.9666 58.9043 41.8821 58.0927 41.713C50.7995 40.1181 43.3999 39.0557 35.9526 38.5344C29.7165 37.9694 23.4699 39.4983 18.1998 42.8796C16.5175 44.1139 13.8039 39.7518 16.8895 37.072Z" fill="#A82A1D"/>
</svg>
