<svg width="72" height="72" viewBox="0 0 72 72" fill="none" xmlns="http://www.w3.org/2000/svg">
<path d="M61.8556 0H10.1444C4.54181 0 0 4.54181 0 10.1444V61.8556C0 67.4582 4.54181 72 10.1444 72H61.8556C67.4582 72 72 67.4582 72 61.8556V10.1444C72 4.54181 67.4582 0 61.8556 0Z" fill="#FFCC99"/>
<path d="M60.1141 34.4059L58.0261 33.2816C54.5347 31.3964 49.8852 27.1104 49.3695 26.6286V26.5863H49.3188C47.8523 25.4887 46.078 24.8795 44.2466 24.8448C42.4869 24.8629 40.7787 25.4402 39.3688 26.4933C38.7274 27.0545 37.9261 27.4004 37.0779 27.4824C36.8552 27.492 36.6334 27.4488 36.4306 27.3562C36.2278 27.2636 36.0499 27.1243 35.9113 26.9498L35.8605 26.8906L35.8014 26.8315C34.3941 25.4713 32.5253 24.6923 30.5685 24.6504C28.4105 24.7395 26.3522 25.5832 24.7524 27.0343C21.9081 29.6618 18.7906 31.9772 15.4533 33.941L13.5005 35.0231L14.7263 35.2429C14.6219 35.3972 14.5613 35.577 14.5509 35.763C14.5404 35.9491 14.5806 36.1345 14.6672 36.2996C16.9918 40.4005 20.2036 43.9299 24.0677 46.63C28.0654 48.8508 32.5638 50.0147 37.137 50.0114C38.7456 50.0336 40.3512 49.8691 41.9218 49.5211C54.839 47.0442 58.6263 35.5726 58.7869 35.0823C58.8249 34.9296 58.8249 34.7699 58.7869 34.6173L60.1141 34.4059Z" fill="#FF5F45"/>
<path d="M22.7573 34.6089C20.945 35.1541 19.0695 35.461 17.1779 35.5219C19.0693 35.459 20.9446 35.1522 22.7573 34.6089C24.3569 34.0192 26.041 33.6909 27.745 33.6367C27.9986 33.6367 28.21 33.6367 28.4128 33.6367C28.21 33.6367 27.9902 33.6367 27.745 33.6367C26.041 33.6901 24.3567 34.0184 22.7573 34.6089Z" fill="#FFA8A6"/>
<path d="M29.7401 33.9498L29.5626 33.8906L29.7401 33.9498Z" fill="#FFA8A6"/>
<path d="M29.4779 33.8475L29.0552 33.7461L29.4779 33.8475Z" fill="#FFA8A6"/>
<path d="M29.0469 33.7473L28.5397 33.6797L29.0469 33.7473Z" fill="#FFA8A6"/>
<path d="M30.0867 34.0865C31.4271 34.8009 32.8656 35.3137 34.3558 35.6082C32.8588 35.3146 31.4142 34.7988 30.0698 34.0781L30.0867 34.0865Z" fill="#FFA8A6"/>
<path d="M34.9728 35.7245L34.491 35.6484L34.9728 35.7245Z" fill="#FFA8A6"/>
<path d="M41.3807 35.032C41.7691 34.894 42.15 34.736 42.522 34.5586C42.15 34.736 41.7691 34.894 41.3807 35.032Z" fill="#FFA8A6"/>
<path d="M41.0765 35.1327L41.3048 35.0566L41.0765 35.1327Z" fill="#FFA8A6"/>
<path d="M42.6911 34.4746L42.5389 34.5507L42.6911 34.4746Z" fill="#FFA8A6"/>
<path d="M43.7901 33.9501C44.7521 33.5778 45.7767 33.3941 46.8081 33.409C45.7767 33.3941 44.7521 33.5778 43.7901 33.9501Z" fill="#FFA8A6"/>
<path d="M50.8574 34.0508L51.111 34.1353L50.8574 34.0508Z" fill="#FFA8A6"/>
<path d="M51.3561 34.1953C51.728 34.2968 52.1 34.3898 52.455 34.4658C52.0662 34.3898 51.728 34.2968 51.3561 34.1953Z" fill="#FFA8A6"/>
<path d="M53.0385 34.5664C53.2752 34.6171 53.5203 34.6679 53.7401 34.7017C53.5119 34.6679 53.2752 34.6171 53.0385 34.5664Z" fill="#FFA8A6"/>
<path d="M46.4022 37.2543C40.1718 40.3145 35.2687 38.8859 32.6142 38.1758C28.6524 37.1114 24.5263 36.7988 20.4494 37.2543C16.3663 37.6601 14.6417 35.217 14.6417 35.217C14.6417 35.217 15.8168 31.6918 25.5723 30.8042C35.3279 29.9166 55.5914 32.5795 55.5914 32.5795L58.8122 34.6084L58.5079 35.7411L57.4934 38.0236C57.4934 38.0236 50.1049 35.4283 46.4022 37.2543Z" fill="#BC2820"/>
<path d="M35.8605 36.8069C33.6651 36.7087 31.5242 36.0916 29.6133 35.0062L29.5118 34.947C28.949 34.7311 28.347 34.636 27.745 34.6681C26.1449 34.7245 24.5639 35.0356 23.0617 35.5895C21.1408 36.1715 19.1505 36.4928 17.1441 36.5448C15.7424 36.6336 14.3493 36.2691 13.1708 35.505C13.0238 35.3962 12.9087 35.25 12.8373 35.0816C12.766 34.9132 12.7412 34.7288 12.7653 34.5475C12.7895 34.3662 12.8618 34.1947 12.9748 34.0509C13.0877 33.9071 13.2372 33.7962 13.4076 33.7297C13.4076 33.7297 17.4315 32.039 23.9578 26.2651C25.7501 24.633 28.0617 23.6868 30.484 23.5938C32.7333 23.6387 34.8792 24.5467 36.4777 26.1299C36.5585 26.1997 36.6271 26.2825 36.6805 26.375C36.7784 26.4208 36.8853 26.4439 36.9933 26.4426C37.6055 26.3704 38.1793 26.1071 38.6333 25.6902C40.2218 24.4767 42.163 23.8148 44.162 23.8051C46.2316 23.8381 48.2377 24.5246 49.8936 25.7664C49.934 25.7927 49.9709 25.8239 50.0035 25.8593C51.9394 27.6769 57.5273 32.5039 60.0888 33.0703C60.281 33.11 60.4576 33.2046 60.5972 33.3426C60.7367 33.4807 60.8332 33.6563 60.875 33.8481C60.917 34.0396 60.9035 34.2392 60.8361 34.4233C60.7688 34.6075 60.6503 34.7686 60.4946 34.8879C60.3593 34.9978 59.0405 35.9361 56.0902 35.9361C54.2907 35.9036 52.5032 35.6364 50.7728 35.1415H50.6714C49.4187 34.6998 48.1024 34.4657 46.7742 34.4483C45.6102 34.4197 44.4607 34.7122 43.4519 35.2937C41.302 36.4354 38.8837 36.9756 36.4523 36.8576C36.244 36.8708 36.035 36.8708 35.8267 36.8576L35.8605 36.8069Z" fill="#FF5F45"/>
<path d="M36.1226 44.7869C36.1226 44.7869 42.0402 44.6601 45.9035 43.1554C48.2429 42.3346 50.4329 41.1383 52.3875 39.6133C52.3875 39.6133 51.0687 39.6132 45.1427 41.7436C39.5971 43.7048 36.1226 44.7869 36.1226 44.7869Z" fill="white"/>
</svg>
