<svg width="72" height="72" viewBox="0 0 72 72" fill="none" xmlns="http://www.w3.org/2000/svg">
<path d="M72 61.8556V10.1444C72 4.54181 67.4582 0 61.8556 0L10.1444 0C4.54179 0 -2.28882e-05 4.54181 -2.28882e-05 10.1444V61.8556C-2.28882e-05 67.4582 4.54179 72 10.1444 72H61.8556C67.4582 72 72 67.4582 72 61.8556Z" fill="#FFCC99"/>
<path d="M12.0803 40.2142C12.0803 45.5653 11.0997 49.099 10.0937 49.2596C9.08776 49.4202 5.24131 45.6922 5.36811 40.341C5.49492 34.9898 8.48755 33.764 10.0937 32.9186C11.1166 32.386 12.0803 36.2409 12.0803 40.2142Z" fill="#FFDFC5"/>
<path d="M57.95 29.9171C54.8475 29.9932 52.0324 30.306 50.3417 30.0439C47.4505 29.6043 40.3579 32.1066 39.428 32.0474C38.4981 31.9883 43.6126 28.2433 50.8827 26.2736C58.1529 24.3039 59.2688 21.2014 57.5104 20.6942C55.7521 20.1869 51.5421 22.1904 48.9299 22.7315C47.1885 23.1034 42.2262 24.8787 39.1152 26.0115C38.9039 26.096 38.8193 25.8424 38.9715 25.6733C40.8968 23.4864 43.1846 21.6476 45.7344 20.2376C48.9722 17.9805 51.8042 16.3997 51.652 14.3792C51.4914 12.0376 45.0328 15.7318 40.7383 18.3947C37.7965 20.2545 34.6686 23.2894 32.1832 24.5744C31.9888 24.6674 31.8619 24.4391 31.9972 24.2616C34.1529 21.3197 39.5379 18.4962 39.8253 16.3236C40.3072 12.5955 37.416 14.9794 36.0972 16.1629C35.328 16.8477 28.6242 21.2859 27.204 22.6385C25.7838 23.9911 17.1356 30.5511 13.247 32.5208C9.60342 34.3384 6.17969 36.325 6.17969 36.325L6.29803 50.4003C6.29803 50.4003 12.8327 45.717 17.0004 46.723C21.146 47.5819 25.3901 47.8664 29.6133 47.5684C32.9521 47.226 36.3106 47.1158 39.6647 47.2387C48.8961 48.084 50.8743 47.2894 50.012 45.3366C49.1497 43.3838 46.2163 43.2824 40.2734 42.7498C34.3304 42.2172 34.2628 40.2729 36.9933 38.7935C40.3748 37.2803 43.2744 35.412 46.2332 34.5666C48.4958 34.022 50.8061 33.6992 53.1314 33.6029C57.9246 33.0957 59.049 32.5208 59.3026 31.405C59.3646 31.0755 59.2935 30.7348 59.105 30.4576C58.9164 30.1803 58.6258 29.9891 58.2966 29.9256C58.182 29.9067 58.0654 29.9038 57.95 29.9171Z" fill="#E78A24"/>
<path d="M35.5224 16.8906C35.5224 16.8906 36.0296 18.1924 37.2131 17.1103C37.8979 16.4763 39.0645 15.3689 38.4896 14.5742C37.3269 15.0935 36.3084 15.8886 35.5224 16.8906Z" fill="#BC2820"/>
<path d="M46.2586 15.3685C46.2586 15.3685 46.9602 16.8564 49.4625 15.4446C51.3815 14.3457 50.4854 13.7539 50.4854 13.7539C48.9911 14.0344 47.5594 14.5813 46.2586 15.3685Z" fill="#BC2820"/>
<path d="M52.6496 21.735C52.6496 21.735 52.5397 23.3159 55.2787 22.462C57.857 21.6589 57.1554 20.6191 57.1554 20.6191C55.6084 20.7773 54.0916 21.1529 52.6496 21.735Z" fill="#BC2820"/>
<path d="M53.7485 30.2727C53.7485 30.2727 53.3427 31.4393 54.7545 31.5999C55.3297 31.6658 55.9086 31.6941 56.4875 31.6845C59.1842 31.321 58.3642 30.0614 58.3642 30.0614C56.8225 30.0176 55.2798 30.0883 53.7485 30.2727Z" fill="#BC2820"/>
<path d="M46.0979 44.051C45.8925 44.084 45.7017 44.1783 45.5509 44.3217C45.4 44.465 45.296 44.6506 45.2526 44.8541C44.999 45.8686 45.0074 47.1451 45.9289 47.4664C46.9343 47.7026 47.9889 47.6108 48.9384 47.2043C49.2263 47.0439 49.4394 46.7763 49.5312 46.4597C49.623 46.1432 49.5862 45.8031 49.4287 45.5136C49.3518 45.3762 49.2517 45.2532 49.1328 45.1501C48.3064 44.3967 47.2151 44.0015 46.0979 44.051Z" fill="#BC2820"/>
<path d="M0.0169678 36.9517V54.4339L10.1614 49.2941C10.1614 49.2941 7.8958 47.8401 7.92116 39.8767C7.92116 33.5449 10.1614 32.9531 10.1614 32.9531L0.0169678 36.9517Z" fill="white"/>
</svg>
