<svg width="72" height="72" viewBox="0 0 72 72" fill="none" xmlns="http://www.w3.org/2000/svg">
<path d="M61.8561 0.152344H10.1445C4.54184 0.152344 0 4.68457 0 10.2754V61.8775C0 67.4683 4.54184 72.0005 10.1445 72.0005H61.8561C67.4587 72.0005 72.0005 67.4683 72.0005 61.8775V10.2754C72.0005 4.68457 67.4587 0.152344 61.8561 0.152344Z" fill="#FFCC99"/>
<path d="M15.3435 0.110102H58.0011C58.0011 0.110102 60.3851 -0.00800455 61.3826 0.000431307C62.1928 0.00567577 62.9982 0.124964 63.775 0.354748C63.775 0.354748 64.781 14.2739 61.036 21.6047C57.291 28.9354 53.825 35.1611 53.825 35.1611L16.265 31.1456C16.265 31.1456 12.0381 20.0187 11.049 11.0345C10.6717 7.41637 10.477 3.78154 10.4657 0.143852C10.4657 0.143852 11.6915 0.143852 13.3569 0.143852L15.3435 0.110102Z" fill="white"/>
<path d="M23.5184 39.3946C23.5184 39.3946 24.2877 51.6097 22.3264 56.6544C19.9767 62.6665 16.0172 67.9191 10.8801 71.8389H60.233C60.233 71.8389 51.7793 63.1753 50.7479 56.8737C50.2999 54.1321 50.7479 37.834 50.7479 37.834L23.5184 39.3946Z" fill="#E78A24"/>
<path d="M23.5184 39.3945L25.2092 42.5664C25.2092 42.5664 28.5315 51.9977 38.0082 53.2125C47.4848 54.4272 50.5282 51.0276 50.5282 51.0276V37.8086L23.5184 39.3945Z" fill="#AF5B00"/>
<path d="M15.6225 17.9355C15.6225 17.9355 12.0888 16.2483 11.8014 20.5506C11.4717 25.5277 14.1769 28.9274 15.1829 29.5263C16.1889 30.1253 15.9776 32.9007 17.7698 35.6676C19.562 38.4346 28.7596 52.3369 37.4501 52.3369C45.5572 52.3369 56.5302 35.0771 57.3248 32.8922C57.7508 31.8817 58.0188 30.812 58.1195 29.7203C58.1195 29.7203 62.8789 26.6159 62.7859 21.0905C62.7014 15.9446 58.5168 18.0198 58.5168 18.0198C58.5168 18.0198 56.657 12.2919 52.7429 9.58397C45.2698 4.41279 34.9055 4.26937 26.8406 6.67359C19.0547 8.94283 15.6225 17.9355 15.6225 17.9355Z" fill="#E78A24"/>
<path d="M20.7371 18.1719C22.125 16.9799 23.8707 16.2825 25.6995 16.1895C26.5625 16.2282 27.4053 16.4626 28.164 16.8747C28.9228 17.2869 29.5775 17.8661 30.0785 18.5684C28.4761 18.0086 26.8028 17.6763 25.1077 17.5814C23.6329 17.6095 22.1663 17.8076 20.7371 18.1719Z" fill="#5E2623"/>
<path d="M33.984 28.5645C33.984 28.5645 34.5758 31.0362 36.9935 31.0193C37.7424 31.014 38.4708 30.7754 39.0771 30.3368C39.6834 29.8982 40.1372 29.2814 40.375 28.5729C40.0098 29.1139 39.5121 29.5528 38.9292 29.8481C38.3463 30.1434 37.6975 30.2852 37.0443 30.26C36.4251 30.2987 35.8078 30.1596 35.2655 29.8591C34.7231 29.5586 34.2784 29.1093 33.984 28.5645Z" fill="#AF5B00"/>
<path d="M30.7041 38.7975C30.7041 38.7975 33.1641 42.4755 36.8584 42.4755C40.5527 42.4755 43.0128 38.3841 43.0128 38.3841C43.0128 38.3841 40.8232 36.1992 39.1832 36.1992C38.6784 36.2436 38.1975 36.4341 37.7995 36.7473C37.4016 37.0605 37.1039 37.4828 36.943 37.9623C36.8803 37.5247 36.6624 37.124 36.3289 36.833C35.9954 36.542 35.5684 36.38 35.1254 36.3764C32.64 36.2414 30.7041 38.7975 30.7041 38.7975Z" fill="#A82A1D"/>
<path d="M17.9134 13.6681C17.9134 13.6681 22.2502 10.9771 24.5242 10.7915C30.0192 10.3275 31.2872 12.4112 31.2872 12.9595C31.2872 13.5078 28.041 11.9978 25.8768 11.905C23.7127 11.8122 17.9134 13.6681 17.9134 13.6681Z" fill="#AF5B00"/>
<path d="M53.208 18.1719C51.8175 16.9787 50.0687 16.2813 48.2372 16.1895C47.3756 16.2295 46.5344 16.4644 45.7773 16.8765C45.0201 17.2887 44.3667 17.8672 43.8666 18.5684C45.469 18.0086 47.1423 17.6763 48.8374 17.5814C50.3122 17.6095 51.7788 17.8076 53.208 18.1719Z" fill="#5E2623"/>
<path d="M56.4035 13.414C56.4035 13.414 52.0245 10.7314 49.7251 10.5373C44.1709 10.0734 42.9621 12.1654 42.886 12.7138C42.8099 13.2621 46.166 11.7521 48.3556 11.6593C50.5451 11.5665 56.4035 13.414 56.4035 13.414Z" fill="#AF5B00"/>
</svg>
