<svg width="72" height="72" viewBox="0 0 72 72" fill="none" xmlns="http://www.w3.org/2000/svg">
<path d="M61.8555 0H10.1444C4.5418 0 0 4.5418 0 10.1444V61.8555C0 67.4581 4.5418 71.9999 10.1444 71.9999H61.8555C67.4581 71.9999 71.9999 67.4581 71.9999 61.8555V10.1444C71.9999 4.5418 67.4581 0 61.8555 0Z" fill="#FFCC99"/>
<path d="M39.6704 39.6987L38.6368 43.1484L41.8679 44.1166L42.9015 40.6668L39.6704 39.6987Z" fill="#3323A3"/>
<path d="M38.1831 39.0932L31.2387 62.2695L40.5918 65.072L47.5363 41.8957L38.1831 39.0932Z" fill="white"/>
<path d="M51.5673 11.4291C49.0674 10.6063 46.3728 10.5861 43.8609 11.3714C41.3491 12.1566 39.1457 13.708 37.5596 15.8081L38.4641 39.1064L47.3405 41.7862L60.8663 22.8077C60.6996 20.1772 59.713 17.6651 58.0451 15.6242C56.3772 13.5833 54.1119 12.1163 51.5673 11.4291Z" fill="#AF5B00"/>
<path d="M59.6406 18.1679C58.863 16.5294 57.7369 15.0805 56.3409 13.9226C54.945 12.7647 53.3129 11.9256 51.5589 11.4642C49.0591 10.6415 46.3645 10.6213 43.8526 11.4066C41.3407 12.1918 39.1374 13.7431 37.5512 15.8432L38.1261 30.654L38.6755 30.8147C45.3201 32.5815 52.3705 29.6988 56.479 23.8742C57.7125 22.0773 58.7712 20.1666 59.6406 18.1679Z" fill="#E78A24"/>
<path d="M42.406 41.9834L36.3545 62.1797L39.4155 63.0969L45.467 42.9005L42.406 41.9834Z" fill="#EEEEFF"/>
<path d="M20.324 48.1225L17.8472 48.4785L18.2309 51.1478L20.7077 50.7918L20.324 48.1225Z" fill="#3323A3"/>
<path d="M21.95 48.3556L14.7693 49.3711L17.3032 67.2894L24.4839 66.2739L21.95 48.3556Z" fill="white"/>
<path d="M17.9809 40.5783C16.2888 40.5052 14.5991 40.7696 13.0102 41.356L16.7298 48.6262L23.4927 47.6456L23.6872 42.2352C22.1148 40.8319 19.8746 40.5783 17.9809 40.5783Z" fill="#E78A24"/>
<path d="M22.7722 48.828L20.4209 49.166L22.6654 64.7801L25.0167 64.4421L22.7722 48.828Z" fill="#EEEEFF"/>
<path d="M19.2321 65.6095L20.1536 72.0005H27.1278L26.0627 64.6289L19.2321 65.6095Z" fill="#FF5F45"/>
<path d="M31.7943 61.2891L28.5903 71.9998H38.2951L40.7044 63.9519L31.7943 61.2891Z" fill="#FF5F45"/>
</svg>
