<svg width="72" height="72" viewBox="0 0 72 72" fill="none" xmlns="http://www.w3.org/2000/svg">
<path d="M61.8556 0H10.1444C4.54181 0 0 4.54181 0 10.1444V61.8556C0 67.4582 4.54181 72 10.1444 72H61.8556C67.4582 72 72 67.4582 72 61.8556V10.1444C72 4.54181 67.4582 0 61.8556 0Z" fill="#FFCC99"/>
<path d="M15.8337 25.9274C18.4321 24.0604 21.3194 22.6325 24.3804 21.7006C29.3934 20.5171 31.1433 20.4832 34.6854 20.703C43.0968 21.9796 44.8298 22.9095 51.5082 26.012C53.8837 27.1194 59.6745 29.9514 59.3279 30.9658C58.5924 30.8221 57.8485 30.7375 57.037 30.5685C49.7437 28.9735 42.3441 27.9112 34.8968 27.3899C28.6607 26.8249 22.4142 28.3538 17.144 31.7351C15.4618 32.9693 12.7481 28.6073 15.8337 25.9274Z" fill="#A82A1D"/>
<path d="M49.826 42.2693C51.0378 42.1836 52.1714 41.6395 52.9962 40.7476C50.1304 41.035 49.9106 41.0012 48.6341 40.0882C50.135 39.4566 51.4397 38.435 52.4129 37.1294C50.3586 37.8142 48.372 38.5327 46.1402 38.1946C46.9856 37.5268 47.831 37.0111 48.4904 36.394C49.2526 35.7465 49.8619 34.9381 50.2741 34.0269C47.6873 35.2189 45.3287 36.3432 42.6658 36.563C44.8553 34.2129 45.7683 32.742 45.8021 31.0344C43.6458 33.3435 40.8242 34.9242 37.7288 35.557C38.229 34.7928 38.568 33.9345 38.725 33.0348C38.882 32.135 38.8537 31.2127 38.6418 30.3242C37.2124 32.9413 35.0578 35.09 32.4368 36.5123C32.5298 35.0414 32.4368 33.748 31.5915 32.7758C31.2164 33.8375 30.773 34.8738 30.2642 35.8783C29.571 37.0026 27.9479 38.3552 25.1159 40.4179C23.0448 41.9142 20.2043 43.7487 20.2043 43.7487C20.2043 43.7487 22.2417 47.1301 24.6848 46.4539C26.0374 46.065 28.0663 44.7631 29.4189 44.3235C32.8003 43.1569 35.2012 41.0519 38.8954 40.942C43.2051 40.7843 47.4208 42.2267 50.7306 44.9913C50.9504 45.2365 50.2572 46.4961 50.4854 46.7413C50.6376 46.6821 51.4661 45.4394 51.6182 45.3718C51.5298 45.0337 51.4081 44.7052 51.2547 44.3912C50.7897 43.6557 50.3248 42.9456 49.826 42.2693Z" fill="#5E2623"/>
<path d="M21.3962 45.3038C21.3962 45.3038 30.6276 37.8138 39.6308 38.6169C48.634 39.42 51.3053 45.7095 51.3053 45.7095C51.3053 45.7095 48.2029 51.3059 37.0017 50.7818C25.8006 50.2576 21.3962 45.3038 21.3962 45.3038Z" fill="white"/>
<path d="M37.6527 50.7816C40.9535 50.7816 43.6294 48.1057 43.6294 44.8049C43.6294 41.504 40.9535 38.8281 37.6527 38.8281C34.3518 38.8281 31.6759 41.504 31.6759 44.8049C31.6759 48.1057 34.3518 50.7816 37.6527 50.7816Z" fill="#AF5B00"/>
<path d="M37.7034 47.451C39.1321 47.451 40.2902 46.2928 40.2902 44.8642C40.2902 43.4355 39.1321 42.2773 37.7034 42.2773C36.2747 42.2773 35.1166 43.4355 35.1166 44.8642C35.1166 46.2928 36.2747 47.451 37.7034 47.451Z" fill="#5E2623"/>
</svg>
